<svg xmlns="http://www.w3.org/2000/svg" width="194.922" height="140.576"><g id="Raggruppa_2" data-name="Raggruppa 2" transform="translate(-323.484 -227.35)" fill="#817d81"><path id="Tracciato_1" data-name="Tracciato 1" d="M371.122 256.058Q395.96 241.7 420.8 227.35q24.84 14.34 49.689 28.668c-.04 19.174-.007 38.349-.007 57.513-16.563 9.561-33.089 19.175-49.682 28.675-16.562-9.59-33.168-19.108-49.721-28.721.063-19.142-.01-38.283.04-57.427m28.871-13.308a54.372 54.372 0 0120.67 6.762 53.982 53.982 0 0120.923-6.8c-6.968-3.9-13.851-7.958-20.78-11.926-6.945 3.974-13.827 8.062-20.813 11.966m-3.641 3.091c-6.342 3.631-11.393 9.214-15.31 15.317a53.869 53.869 0 0121.6 7.032 53.678 53.678 0 0115.2-16.919c-6.643-3.241-14.011-5.956-21.49-5.43m27.156 5.447a53.849 53.849 0 0115.237 17.045 54.022 54.022 0 0121.969-7.088c-4.07-6.116-9.1-11.876-15.573-15.5-7.535-.39-14.957 2.2-21.633 5.543m-49.412 6.469c0 3.711-.01 7.422 0 11.136a56.952 56.952 0 0110.014-16.906c-3.338 1.922-6.669 3.858-10.014 5.77m83.257-5.913a52.541 52.541 0 0110.323 17.622c.014-3.9.03-7.8-.01-11.692-3.464-1.936-6.878-3.938-10.313-5.93m-52.207 17.962a52.093 52.093 0 0115.587 17.709 52.458 52.458 0 0115.527-17.573 49.86 49.86 0 00-15.6-16.925 50.418 50.418 0 00-15.517 16.789m-30.707 16.769a51.182 51.182 0 0122.126 7.455 54.263 54.263 0 014.7-23.2 49.618 49.618 0 00-21.833-6.8 48.208 48.208 0 00-4.994 22.549m65.668-15.59a49.577 49.577 0 014.484 23.062 52.937 52.937 0 0122.782-7.582 51.247 51.247 0 00-5.136-22.375 50.26 50.26 0 00-22.13 6.895m-40.35 25.231a51.319 51.319 0 0115.58 19.478 52.126 52.126 0 013.775-24.731 47.692 47.692 0 00-15.324-18.425 47.365 47.365 0 00-4.031 23.681m22.606-5.323a51.945 51.945 0 013.7 24.638 51.636 51.636 0 0115.55-19.4 47.568 47.568 0 00-4-23.469 49.3 49.3 0 00-15.25 18.229m-47.76-1.343a48.419 48.419 0 008.228 22.32 51.69 51.69 0 0123.315 9.19 50.892 50.892 0 01-9.2-23.241 48.428 48.428 0 00-22.343-8.269m69.832 8.172a52.352 52.352 0 01-8.754 22.812 51.521 51.521 0 0123.258-8.874 49.11 49.11 0 008.175-22.263 49.892 49.892 0 00-22.679 8.325m-23.778 28.3a46.353 46.353 0 00.113-30.8c-3.72 9.83-3.441 20.9-.113 30.8M400.3 300.5a47.249 47.249 0 0015.453 26.579A46.6 46.6 0 00400.3 300.5m-26.257.652c.067 3.568.04 7.139.067 10.707 2.921 1.632 5.8 3.345 8.721 4.97a57.6 57.6 0 01-8.788-15.677m51.457 26.024a46.659 46.659 0 0015.483-26.66 46.627 46.627 0 00-15.483 26.66m42.153-26.217a57.154 57.154 0 01-8.931 15.973q4.471-2.639 8.961-5.223c0-3.588.016-7.162-.03-10.75m-38.8 29.944a47.161 47.161 0 0027.479-15.916 47.59 47.59 0 00-27.474 15.913m-43.3-15.58a47.423 47.423 0 0026.646 15.421 46.637 46.637 0 00-26.646-15.421"/><g id="Raggruppa_1" data-name="Raggruppa 1"><path id="Tracciato_2" data-name="Tracciato 2" d="M325.982 367.737h-2.5v-18.081h6.485a5.16 5.16 0 012.063.416 5.281 5.281 0 012.808 2.808 5.158 5.158 0 01.416 2.062 5.241 5.241 0 01-.271 1.685 5.175 5.175 0 01-.764 1.458 5.381 5.381 0 01-1.167 1.142 5.187 5.187 0 01-1.47.737l5.754 7.773h-1.716a2.817 2.817 0 01-1.293-.285 2.347 2.347 0 01-.928-.851l-4.731-6.385h-2.688zm0-15.583v5.565h3.987a2.764 2.764 0 001.969-.808 2.867 2.867 0 00.6-.883 2.774 2.774 0 000-2.17 2.829 2.829 0 00-1.483-1.483 2.678 2.678 0 00-1.085-.221z"/><path id="Tracciato_3" data-name="Tracciato 3" d="M340.492 358.69a9.143 9.143 0 011.262-4.662 9.339 9.339 0 013.312-3.312 9.219 9.219 0 019.324 0 9.34 9.34 0 013.312 3.312 9.211 9.211 0 010 9.324 9.318 9.318 0 01-3.312 3.312 9.143 9.143 0 01-4.662 1.262 8.958 8.958 0 01-3.6-.726 9.293 9.293 0 01-4.914-4.915 8.95 8.95 0 01-.722-3.595zm2.5 0a6.535 6.535 0 00.529 2.624 6.786 6.786 0 003.579 3.586 6.751 6.751 0 005.249 0 6.783 6.783 0 003.584-3.583 6.772 6.772 0 000-5.248 6.789 6.789 0 00-3.584-3.584 6.775 6.775 0 00-5.249 0 6.792 6.792 0 00-3.583 3.584 6.531 6.531 0 00-.526 2.621z"/><path id="Tracciato_4" data-name="Tracciato 4" d="M371.454 352.731a4.913 4.913 0 00-1-.568 2.47 2.47 0 00-.946-.21 3.75 3.75 0 00-1.116.163 3.176 3.176 0 00-.922.455 2.284 2.284 0 00-.63.688 1.679 1.679 0 00-.234.865 2.166 2.166 0 00.177.922 1.832 1.832 0 00.567.676 4.8 4.8 0 001.016.562q.624.264 1.521.568c.294.118.59.229.889.335s.591.218.877.341.568.254.845.4a5.358 5.358 0 01.795.505 4.668 4.668 0 011.906 3.915 5.043 5.043 0 01-.505 2.26 5.528 5.528 0 01-1.363 1.761 6.315 6.315 0 01-1.981 1.149 6.777 6.777 0 01-2.347.411 5.925 5.925 0 01-4.075-1.451 5.81 5.81 0 01-.58-.587 5.733 5.733 0 01-.436-.574q-.183-.277-.309-.5a8.461 8.461 0 01-.2-.379l.606-.316a1.9 1.9 0 011-.29 1.85 1.85 0 011.388.593l.2.164a3.637 3.637 0 001.067.625 3.8 3.8 0 001.343.221 4.347 4.347 0 001.275-.2 4.117 4.117 0 001.192-.587 3.206 3.206 0 00.884-.959 2.524 2.524 0 00.346-1.331 2.1 2.1 0 00-.328-1.211 3 3 0 00-.852-.821 5.91 5.91 0 00-1.173-.58q-.65-.24-1.28-.492-.935-.364-1.824-.757a7.042 7.042 0 01-1.589-.952 4.267 4.267 0 01-1.123-1.375 4.367 4.367 0 01-.423-2.026 4.16 4.16 0 01.461-1.981 4.565 4.565 0 011.217-1.469 5.5 5.5 0 011.729-.916 6.448 6.448 0 011.993-.315 4.478 4.478 0 011.476.253 7.118 7.118 0 011.376.643 7.594 7.594 0 011.16.858 8.269 8.269 0 01.858.884l-.643.479a1.83 1.83 0 01-1.224.454 1.945 1.945 0 01-1.061-.303z"/><path id="Tracciato_5" data-name="Tracciato 5" d="M391.982 367.737H380.8v-18.081h11.179v2.5H383.3v5.212h7.027v2.5H383.3v5.375h8.68z"/><path id="Tracciato_6" data-name="Tracciato 6" d="M400.852 367.737h-2.5v-18.081h6.461a5.51 5.51 0 012.208.448 5.7 5.7 0 013.021 3.022 5.665 5.665 0 010 4.416 5.7 5.7 0 01-3.021 3.021 5.475 5.475 0 01-2.208.448h-3.962zm3.962-9.224a3.117 3.117 0 001.236-.246 3.176 3.176 0 001.7-1.69 3.248 3.248 0 000-2.48 3.2 3.2 0 00-.681-1.016 3.153 3.153 0 00-1.016-.68 3.118 3.118 0 00-1.236-.247h-3.962v6.359z"/><path id="Tracciato_7" data-name="Tracciato 7" d="M430.842 367.737h-2.5v-7.848H418.6v7.848h-2.5v-18.081h2.5v7.734h9.741v-7.734h2.5z"/><path id="Tracciato_8" data-name="Tracciato 8" d="M442.993 349.656h2.435l7.885 18.081h-1.438a1.941 1.941 0 01-1.073-.309 1.9 1.9 0 01-.718-.852l-1.262-2.877h-9.236l-1.249 2.877a1.87 1.87 0 01-.713.845 1.941 1.941 0 01-1.079.316h-1.438zm.983 3.987l-3.292 7.558h7.053l-3.293-7.558a2.974 2.974 0 01-.24-1.072 4.5 4.5 0 01-.082.58 3.116 3.116 0 01-.146.492z"/><path id="Tracciato_9" data-name="Tracciato 9" d="M460.366 367.737h-2.5v-18.081h6.486a5.159 5.159 0 012.062.416 5.281 5.281 0 012.808 2.808 5.158 5.158 0 01.416 2.062 5.21 5.21 0 01-1.035 3.143 5.381 5.381 0 01-1.167 1.142 5.187 5.187 0 01-1.47.737l5.754 7.773h-1.716a2.817 2.817 0 01-1.293-.285 2.347 2.347 0 01-.928-.851l-4.731-6.385h-2.688zm0-15.583v5.565h3.988a2.764 2.764 0 001.968-.808 2.868 2.868 0 00.6-.883 2.786 2.786 0 000-2.17 2.829 2.829 0 00-1.483-1.483 2.677 2.677 0 00-1.084-.221z"/><path id="Tracciato_10" data-name="Tracciato 10" d="M495.959 367.737h-2.5v-14.4a1.619 1.619 0 00-.038.171l-.057.3a5.332 5.332 0 01-.076.34 1.735 1.735 0 01-.095.284l-5.8 13.3h-2.436l-5.791-13.286a1 1 0 01-.088-.227c-.025-.093-.049-.187-.069-.285s-.038-.185-.051-.264a1.371 1.371 0 01-.019-.184v14.246h-2.5v-18.076h2.069a1.955 1.955 0 011.792 1.161l5.64 12.933a3.158 3.158 0 01.157.523 3.5 3.5 0 01.069.587 3.4 3.4 0 01.24-1.11l5.64-12.933a1.884 1.884 0 01.732-.852 1.97 1.97 0 011.06-.309h2.119z"/><path id="Tracciato_11" data-name="Tracciato 11" d="M508.084 349.656h2.436l7.886 18.081h-1.439a1.933 1.933 0 01-1.072-.309 1.9 1.9 0 01-.72-.852l-1.262-2.877h-9.236l-1.248 2.877a1.863 1.863 0 01-.713.845 1.946 1.946 0 01-1.079.316H500.2zm.985 3.987l-3.294 7.558h7.054l-3.294-7.558a3.038 3.038 0 01-.24-1.072 4.506 4.506 0 01-.081.58 3.341 3.341 0 01-.145.492z"/></g></g></svg>