<svg xmlns="http://www.w3.org/2000/svg" width="134.725" height="140.892"><g id="Raggruppa_3" data-name="Raggruppa 3" transform="translate(-353.582 -227.192)" fill="#a2843e"><g id="Raggruppa_1" data-name="Raggruppa 1" fill-rule="evenodd"><path id="Tracciato_1" data-name="Tracciato 1" d="M420.995 227.2c-.146-.581-37.115 21.153-37.115 21.153s-18.59-10.676-18.381-10.7c0 6.811.027 14.657.027 21.471-.108-.216 18.431 10.689 18.431 10.689l55.395-32.106c-.059.079-18.647-10.8-18.357-10.51"/><path id="Tracciato_2" data-name="Tracciato 2" d="M402.471 280.293l18.391 10.5 55.206-31.66.186-21.384z"/><path id="Tracciato_3" data-name="Tracciato 3" d="M420.79 312.3l-55.274-31.94-.067 20.954 55.406 32.2 55.4-32.139v-21.207z"/></g><g id="Raggruppa_2" data-name="Raggruppa 2"><path id="Tracciato_4" data-name="Tracciato 4" d="M367.151 365.391v2.5h-13.569v-1.038a2.4 2.4 0 01.582-1.632l9.573-12.96h-9.674v-2.5h13.253v1.039a2.414 2.414 0 01-.468 1.493l-9.838 13.313a1.61 1.61 0 01.139-.1 1.256 1.256 0 01.151-.075.518.518 0 01.2-.038z"/><path id="Tracciato_5" data-name="Tracciato 5" d="M387.776 367.895h-2.5v-7.865h-9.766v7.865h-2.5v-18.121h2.5v7.752h9.762v-7.752h2.5z"/><path id="Tracciato_6" data-name="Tracciato 6" d="M393.694 358.827a9.174 9.174 0 011.264-4.671 9.341 9.341 0 013.32-3.32 9.233 9.233 0 019.345 0 9.319 9.319 0 013.32 3.32 9.24 9.24 0 010 9.344 9.341 9.341 0 01-3.32 3.32 9.154 9.154 0 01-4.673 1.264 9 9 0 01-3.6-.726 9.333 9.333 0 01-4.925-4.926 8.978 8.978 0 01-.731-3.605zm2.5 0a6.546 6.546 0 00.531 2.631 6.8 6.8 0 003.591 3.591 6.781 6.781 0 005.261 0 6.8 6.8 0 003.591-3.591 6.779 6.779 0 000-5.26 6.8 6.8 0 00-3.591-3.592 6.781 6.781 0 00-5.261 0 6.8 6.8 0 00-3.591 3.592 6.543 6.543 0 00-.525 2.629z"/><path id="Tracciato_7" data-name="Tracciato 7" d="M422.551 349.774h2.441l7.9 18.121h-1.441a1.944 1.944 0 01-1.075-.31 1.906 1.906 0 01-.721-.853l-1.265-2.884h-9.256l-1.252 2.884a1.868 1.868 0 01-.714.846 1.946 1.946 0 01-1.082.317h-1.441zm.986 4l-3.3 7.574h7.063l-3.3-7.574a2.989 2.989 0 01-.241-1.075 4.337 4.337 0 01-.083.582 3.3 3.3 0 01-.139.489z"/><path id="Tracciato_8" data-name="Tracciato 8" d="M439.711 367.895h-2.5v-18.121h7.127a4.987 4.987 0 011.981.4 5.064 5.064 0 012.709 2.706 4.963 4.963 0 01.4 1.979 4.434 4.434 0 01-.178 1.208 5.27 5.27 0 01-.471 1.15 3.445 3.445 0 01-.667.873 1.26 1.26 0 01-.781.373 1.97 1.97 0 01.24.019 1.932 1.932 0 01.322.07 2.616 2.616 0 01.341.126 1.174 1.174 0 01.31.2 6.164 6.164 0 011.251 1.689 4.56 4.56 0 01.493 2.105 5.081 5.081 0 01-.411 2.036 5.263 5.263 0 01-1.119 1.651 5.363 5.363 0 01-1.657 1.112 5.064 5.064 0 01-2.036.411zm0-15.617v5.171h4.616a2.535 2.535 0 001.005-.2 2.578 2.578 0 00.828-.556 2.632 2.632 0 00.557-.823 2.5 2.5 0 00.2-1 2.547 2.547 0 00-.2-1 2.59 2.59 0 00-1.385-1.385 2.534 2.534 0 00-1.005-.2zm5.349 13.113a2.623 2.623 0 001.063-.215 2.724 2.724 0 00.859-.59 2.858 2.858 0 00.582-.868 2.681 2.681 0 000-2.1 2.746 2.746 0 00-1.441-1.445 2.606 2.606 0 00-1.05-.216h-5.362v5.438z"/><path id="Tracciato_9" data-name="Tracciato 9" d="M467.6 367.895h-11.2v-18.121h11.2v2.5h-8.7v5.226h7.043v2.5H458.9v5.387h8.7z"/><path id="Tracciato_10" data-name="Tracciato 10" d="M481.694 358.7a.657.657 0 00.114.4l6.5 8.789h-1.719a2.842 2.842 0 01-1.3-.284 2.389 2.389 0 01-.93-.854l-4.286-5.792a.9.9 0 01-.146-.335 6.202 6.202 0 01-.057-.272 2.514 2.514 0 01-.113.434.591.591 0 01-.089.171l-4.287 5.792a2.386 2.386 0 01-.929.854 2.849 2.849 0 01-1.3.284h-1.72l6.437-8.713a.639.639 0 01.089-.164.586.586 0 00.089-.317.684.684 0 00-.115-.378l-6.309-8.549h1.719a2.829 2.829 0 011.3.284 2.378 2.378 0 01.93.853l4.1 5.527a.634.634 0 01.094.2c.022.071.04.141.058.208l.05.253a1.113 1.113 0 01.057-.341 1.331 1.331 0 01.146-.316l4.084-5.527a2.372 2.372 0 01.93-.853 2.826 2.826 0 011.3-.284h1.719l-6.272 8.5a.441.441 0 00-.108.2 1 1 0 00-.036.23z"/></g></g></svg>