<svg xmlns="http://www.w3.org/2000/svg" width="134.725" height="140.892" viewBox="0 0 134.725 140.892">
  <g id="Raggruppa_3" data-name="Raggruppa 3" transform="translate(-353.582 -227.192)">
    <g id="Raggruppa_1" data-name="Raggruppa 1">
      <path id="Tracciato_1" data-name="Tracciato 1" d="M420.995,227.2c-.146-.581-37.115,21.153-37.115,21.153s-18.59-10.676-18.381-10.7c0,6.811.027,14.657.027,21.471-.108-.216,18.431,10.689,18.431,10.689l55.395-32.106c-.059.079-18.647-10.8-18.357-10.51" fill="#a2843e" fill-rule="evenodd"/>
      <path id="Tracciato_2" data-name="Tracciato 2" d="M402.471,280.293l18.391,10.5,55.206-31.66.186-21.384Z" fill="#a2843e" fill-rule="evenodd"/>
      <path id="Tracciato_3" data-name="Tracciato 3" d="M420.79,312.3,365.516,280.36l-.067,20.954,55.406,32.2,55.4-32.139V280.168Z" fill="#a2843e" fill-rule="evenodd"/>
    </g>
    <g id="Raggruppa_2" data-name="Raggruppa 2">
      <path id="Tracciato_4" data-name="Tracciato 4" d="M367.151,365.391v2.5H353.582v-1.038a2.4,2.4,0,0,1,.582-1.632l9.573-12.96h-9.674v-2.5h13.253V350.8a2.414,2.414,0,0,1-.468,1.493l-9.838,13.313c.042-.033.088-.068.139-.1a1.256,1.256,0,0,1,.151-.075.518.518,0,0,1,.2-.038Z" fill="#a2843e"/>
      <path id="Tracciato_5" data-name="Tracciato 5" d="M387.776,367.895h-2.5V360.03H375.51v7.865h-2.5V349.774h2.5v7.752h9.762v-7.752h2.5Z" fill="#a2843e"/>
      <path id="Tracciato_6" data-name="Tracciato 6" d="M393.694,358.827a9.174,9.174,0,0,1,1.264-4.671,9.341,9.341,0,0,1,3.32-3.32,9.233,9.233,0,0,1,9.345,0,9.319,9.319,0,0,1,3.32,3.32,9.24,9.24,0,0,1,0,9.344,9.341,9.341,0,0,1-3.32,3.32,9.154,9.154,0,0,1-4.673,1.264,9,9,0,0,1-3.6-.726,9.333,9.333,0,0,1-4.925-4.926A8.978,8.978,0,0,1,393.694,358.827Zm2.5,0a6.546,6.546,0,0,0,.531,2.631,6.8,6.8,0,0,0,3.591,3.591,6.781,6.781,0,0,0,5.261,0,6.8,6.8,0,0,0,3.591-3.591,6.779,6.779,0,0,0,0-5.26,6.8,6.8,0,0,0-3.591-3.592,6.781,6.781,0,0,0-5.261,0,6.8,6.8,0,0,0-3.591,3.592A6.543,6.543,0,0,0,396.2,358.827Z" fill="#a2843e"/>
      <path id="Tracciato_7" data-name="Tracciato 7" d="M422.551,349.774h2.441l7.9,18.121h-1.441a1.944,1.944,0,0,1-1.075-.31,1.906,1.906,0,0,1-.721-.853l-1.265-2.884h-9.256l-1.252,2.884a1.868,1.868,0,0,1-.714.846,1.946,1.946,0,0,1-1.082.317h-1.441Zm.986,4-3.3,7.574H427.3l-3.3-7.574a2.989,2.989,0,0,1-.241-1.075,4.337,4.337,0,0,1-.083.582A3.3,3.3,0,0,1,423.537,353.77Z" fill="#a2843e"/>
      <path id="Tracciato_8" data-name="Tracciato 8" d="M439.711,367.895h-2.5V349.774h7.127a4.987,4.987,0,0,1,1.981.4,5.064,5.064,0,0,1,2.709,2.706,4.963,4.963,0,0,1,.4,1.979,4.434,4.434,0,0,1-.178,1.208,5.27,5.27,0,0,1-.471,1.15,3.445,3.445,0,0,1-.667.873,1.26,1.26,0,0,1-.781.373,1.97,1.97,0,0,1,.24.019,1.932,1.932,0,0,1,.322.07,2.616,2.616,0,0,1,.341.126,1.174,1.174,0,0,1,.31.2,6.164,6.164,0,0,1,1.251,1.689,4.56,4.56,0,0,1,.493,2.105,5.081,5.081,0,0,1-.411,2.036,5.263,5.263,0,0,1-1.119,1.651,5.363,5.363,0,0,1-1.657,1.112,5.064,5.064,0,0,1-2.036.411Zm0-15.617v5.171h4.616a2.535,2.535,0,0,0,1.005-.2,2.578,2.578,0,0,0,.828-.556,2.632,2.632,0,0,0,.557-.823,2.5,2.5,0,0,0,.2-1,2.547,2.547,0,0,0-.2-1,2.59,2.59,0,0,0-1.385-1.385,2.534,2.534,0,0,0-1.005-.2Zm5.349,13.113a2.623,2.623,0,0,0,1.063-.215,2.724,2.724,0,0,0,.859-.59,2.858,2.858,0,0,0,.582-.868,2.681,2.681,0,0,0,0-2.1,2.746,2.746,0,0,0-1.441-1.445,2.606,2.606,0,0,0-1.05-.216h-5.362v5.438Z" fill="#a2843e"/>
      <path id="Tracciato_9" data-name="Tracciato 9" d="M467.6,367.895h-11.2V349.774h11.2v2.5h-8.7V357.5h7.043V360h-7.043v5.387h8.7Z" fill="#a2843e"/>
      <path id="Tracciato_10" data-name="Tracciato 10" d="M481.694,358.7a.657.657,0,0,0,.114.4l6.5,8.789h-1.719a2.842,2.842,0,0,1-1.3-.284,2.389,2.389,0,0,1-.93-.854l-4.286-5.792a.9.9,0,0,1-.146-.335c-.03-.131-.048-.222-.057-.272-.017.092-.033.171-.05.234s-.038.131-.063.2a.591.591,0,0,1-.089.171l-4.287,5.792a2.386,2.386,0,0,1-.929.854,2.849,2.849,0,0,1-1.3.284h-1.72l6.437-8.713a.639.639,0,0,1,.089-.164.586.586,0,0,0,.089-.317.684.684,0,0,0-.115-.378l-6.309-8.549h1.719a2.829,2.829,0,0,1,1.3.284,2.378,2.378,0,0,1,.93.853l4.1,5.527a.634.634,0,0,1,.094.2c.022.071.04.141.058.208.017.085.033.169.05.253a1.113,1.113,0,0,1,.057-.341,1.331,1.331,0,0,1,.146-.316l4.084-5.527a2.372,2.372,0,0,1,.93-.853,2.826,2.826,0,0,1,1.3-.284h1.719l-6.272,8.5a.441.441,0,0,0-.108.2A1,1,0,0,0,481.694,358.7Z" fill="#a2843e"/>
    </g>
  </g>
</svg>
